# xmcd
#
# Track frame offsets: 
#        150
#        10960
#        24352
#        39647
#        54298
#        73856
#        91486
#        108423
#        124969
#        140129
#        154063
#        179853
#        197689
#        220864
#        247514
#        269723
#        286868
#        301228
#        323566
#        340814
#
# Disc length: 4804 seconds
#
# Revision: 2
# Processed by: cddbd v1.5.2PL0 Copyright (c) Steve Scherf et al.
# Submitted via: ExactAudioCopy v0.95a5
#
DISCID=2612c214
DTITLE=Zydeco Collection - Zydeco Kings  CD-4  
DYEAR=2005
DGENRE=Zydeco
TTITLE0=CHUBBY CARRIER - Stay a Little Longer
TTITLE1=C.J.CHENIER - Zydeco Cha Cha
TTITLE2=GENO DeLAFOCE - Everybody's Dancin'
TTITLE3=RADIO KINGS - Love Comes Easy (Love Comes Hard)
TTITLE4=CLIFTON CHENIER - Hungry Man Blues
TTITLE5=C.J.CHENIER - Louisiana Down Home Blues
TTITLE6=CHUBBY CARRIER - Who Stole the Hot Sauce
TTITLE7=GENO DeLAFOCE - What a Wonderful World
TTITLE8=C.J.CHENIER - No Shoes Zydeco
TTITLE9=PORCHDOGS CAJUN ZYDECO BAND - Hey Tee Fee
TTITLE10=C.J.CHENIER - Got You On My Mind
TTITLE11=GENO DeLAFOCE - Good Time Woman
TTITLE12=L.C.DONATTO - Stop Down Little Girl
TTITLE13=CHUBBY CARRIER - I'm Coming Home
TTITLE14=GENO DeLAFOCE - Zydeco with Geno
TTITLE15=C.J.CHENIER - Lost In the Shuffle
TTITLE16=CLIFTON CHENIER - Easy, Easy Baby
TTITLE17=GENO DeLAFOCE - What Do You Want with His Love
TTITLE18=C.J.CHENIER - My Heart's Not Through Loving You
TTITLE19=CHUBBY CARRIER - Luziana Feelin'
EXTD=
EXTT0=
EXTT1=
EXTT2=
EXTT3=
EXTT4=
EXTT5=
EXTT6=
EXTT7=
EXTT8=
EXTT9=
EXTT10=
EXTT11=
EXTT12=
EXTT13=
EXTT14=
EXTT15=
EXTT16=
EXTT17=
EXTT18=
EXTT19=
PLAYORDER=
